HIERARCHY
ROOT pelvis
{
  OFFSET 0 100 0
  CHANNELS 6 Xposition Yposition Zposition Zrotation Xrotation Yrotation
  JOINT pelvis_right_femur
  {
    OFFSET -10.78128 -3.44521 -0.5502486
    CHANNELS 3 Zrotation Xrotation Yrotation
    JOINT right_femur_tibia
    {
      OFFSET -0.8047443 -44.0398 -0.1307829
      CHANNELS 3 Zrotation Xrotation Yrotation
      JOINT right_tibia_foot
      {
        OFFSET 3.006224 -47.83518 -5
        CHANNELS 3 Zrotation Xrotation Yrotation
        End Site
        {
          OFFSET 0 -5 15
        }
      }
    }
  }
  JOINT pelvis_left_femur
  {
    OFFSET 10.78128 -3.44521 -0.5502486
    CHANNELS 3 Zrotation Xrotation Yrotation
    JOINT left_femur_tibia
    {
      OFFSET 0.8047443 -44.0398 -0.1307829
      CHANNELS 3 Zrotation Xrotation Yrotation
      JOINT left_tibia_foot
      {
        OFFSET -4.370144 -48.10324 -4.275266
        CHANNELS 3 Zrotation Xrotation Yrotation
        End Site
        {
          OFFSET 0 -5 15
        }
      }
    }
  }
  JOINT pelvis_spine1
  {
    OFFSET 0 6.468898 -3.129235
    CHANNELS 3 Zrotation Xrotation Yrotation
    JOINT spine1
    {
      OFFSET 0 23.15396 4.99043
      CHANNELS 3 Zrotation Xrotation Yrotation
      JOINT spine2
      {
        OFFSET 0 20.79997 -5.064912
        CHANNELS 3 Zrotation Xrotation Yrotation
        JOINT neck
        {
          OFFSET 0 14.38658 9.616178
          CHANNELS 3 Zrotation Xrotation Yrotation
          End Site
          {
            OFFSET 0 20 0
          }
        }
      }
      JOINT right_manubrium
      {
        OFFSET -5.722621 16.35077 3.967754
        CHANNELS 3 Zrotation Xrotation Yrotation
        JOINT right_clavicle
        {
          OFFSET -13.16364 1.694482 -4.693211
          CHANNELS 3 Zrotation Xrotation Yrotation
          JOINT right_humerus
          {
            OFFSET -28.5034 -0.3100689 -2.792744
            CHANNELS 3 Zrotation Xrotation Yrotation
            JOINT right_radius
            {
              OFFSET -25.15693 0.02248979 -1.271978
              CHANNELS 3 Zrotation Xrotation Yrotation
              End Site
              {
                OFFSET -15 0 0
              }
            }
          }
        }
      }
      JOINT left_manubrium
      {
        OFFSET 5.722621 16.35077 3.967754
        CHANNELS 3 Zrotation Xrotation Yrotation
        JOINT left_clavicle
        {
          OFFSET 13.16364 1.694482 -4.693211
          CHANNELS 3 Zrotation Xrotation Yrotation
          JOINT left_humerus
          {
            OFFSET 29.39168 -1.063119 -2.237045
            CHANNELS 3 Zrotation Xrotation Yrotation
            JOINT left_radius
            {
              OFFSET 24.59957 -0.9528479 0.9047498
              CHANNELS 3 Zrotation Xrotation Yrotation
              End Site
              {
                OFFSET 15 -0 -0
              }
            }
          }
        }
      }
    }
  }
}
MOTION
Frames: 11
Frame Time: 0.0416666666667
-516.9359 105.8615 2997.268 -3.13989 -6.829741 -28.50421 0.3536281 -15.43195 0.2120749 -0 40.90722 -0 -4.362563 4.718072 -4.943334 -4.814686 6.484792 -8.539494 -0 13.21769 -0 -0.9579354 -16.07024 16.12433 -3.178484 -3.598315 9.660302 0.8325823 12.62241 -5.852138 -2.083676 21.61723 5.949768 5.144576 -14.89066 1.911401 4.452852 -29.5326 12.92707 82.19935 29.30135 -7.490775 -0 0 30.52335 -14.94813 6.540788 7.070719 1.133712 -23.07225 -6.984948 -100.5217 7.495582 45.53576 -0 0 9.393215 6.539863 12.93328 6.932183
-519.1209 105.1142 3002.057 -2.596368 -6.309891 -27.88279 -0.009289903 -20.36425 -1.047531 -0 29.81991 -0 -4.137874 2.269397 -5.168949 -4.95504 9.742108 -8.38321 -0 11.81486 -0 -1.314589 -18.22402 15.10115 -3.298674 -3.792457 9.45957 0.9193312 12.34053 -6.00867 -2.273888 21.30823 6.384126 5.385601 -15.08351 1.978871 4.95353 -29.26915 13.01203 81.54724 29.80801 -7.224409 -0 0 30.83541 -14.93088 7.064723 7.205692 1.525146 -23.37653 -6.250078 -100.5786 6.953993 45.65125 -0 0 9.714019 6.266814 13.38767 7.103749
-521.5344 103.804 3007.061 -1.82793 -5.833988 -27.36891 -0.3936042 -23.8374 -2.392971 -0 19.15678 -0 -3.92874 0.8664525 -5.304996 -5.280318 12.57532 -8.070276 -0 11.6504 -0 -1.551201 -20.07789 14.15195 -3.373278 -3.942023 9.10915 1.06094 11.91434 -6.280622 -2.326793 21.01931 6.76979 5.497154 -15.71204 2.258111 5.10094 -28.72345 12.98046 81.25752 30.18701 -7.412694 -0 0 30.62365 -14.99532 7.519707 7.178356 2.203638 -23.65464 -5.275516 -100.2224 6.884412 44.64828 -0 0 9.04332 6.349964 14.05841 6.510479
-524.2697 102.2456 3012.415 -1.093652 -5.28624 -26.89863 -0.378509 -25.88163 -3.236035 -0 11.01382 -0 -3.804241 0.8592641 -5.497292 -5.537362 15.01815 -7.594296 -0 13.15863 -0 -1.959115 -21.04269 13.27944 -3.391044 -4.020232 8.644629 1.240065 11.3892 -6.640967 -2.25162 20.77265 7.088664 5.502798 -16.6849 2.703998 4.897769 -27.92442 12.83426 81.38054 30.40728 -8.089369 -0 0 29.88325 -15.13165 7.849741 6.982637 3.111336 -23.89178 -4.199966 -99.47949 7.261147 42.59495 -0 0 7.412382 6.79844 14.80348 5.219855
-527.3748 100.7887 3018.169 -0.7244202 -4.745978 -26.4711 0.3508949 -26.44272 -3.155582 -0 6.667948 -0 -3.797286 1.780221 -5.814743 -5.480403 16.94247 -7.05958 -0 16.80946 -0 -2.798631 -20.58203 12.50529 -3.328842 -4.000513 8.126891 1.429203 10.84944 -7.044785 -2.083175 20.58098 7.329069 5.449223 -17.8279 3.225103 4.392009 -26.94543 12.60472 81.93385 30.45337 -9.229753 -0 0 28.65912 -15.32992 8.021927 6.641031 4.135075 -24.10979 -3.21659 -98.40471 7.926122 39.71939 -0 0 4.953807 7.568349 15.41937 3.406136
-530.8264 99.75219 3024.269 -0.9521337 -4.456041 -26.16503 1.802974 -25.47016 -2.122801 -0 6.293887 -0 -3.935365 2.725981 -6.226797 -5.019719 18.03882 -6.586386 -0 22.90899 -0 -3.885194 -18.48316 12.04201 -3.177744 -3.876487 7.622842 1.60255 10.3848 -7.439922 -1.864194 20.46139 7.479191 5.370632 -18.94699 3.725926 3.663226 -25.90013 12.341 82.87767 30.32142 -10.72247 -0 0 27.05556 -15.57207 8.021435 6.201693 5.124575 -24.33563 -2.497951 -97.10373 8.679839 36.38898 -0 0 1.929961 8.548464 15.75455 1.333618
-534.5173 99.3732 3030.576 -1.740203 -4.625982 -26.12191 3.605191 -23.03352 -0.4950589 -0 8.838385 -0 -4.186115 2.937887 -6.629527 -4.289559 17.8638 -6.234997 -0 31.26781 -0 -4.777562 -15.1154 12.17415 -2.954425 -3.670912 7.190076 1.741343 10.06288 -7.77774 -1.631416 20.43097 7.529601 5.277741 -19.88574 4.137004 2.81263 -24.92036 12.09386 84.09331 30.01883 -12.36985 -0 0 25.24613 -15.83481 7.86236 5.730865 5.93654 -24.57852 -2.136261 -95.73507 9.363317 33.04627 0 0 -1.285756 9.584118 15.77959 -0.6996647
-538.2795 99.74338 3036.891 -2.786645 -5.276376 -26.47489 5.192472 -19.32897 1.205911 -0 12.43376 -0 -4.421983 2.171346 -6.892673 -3.565611 15.99036 -5.987844 -0 40.95703 -0 -5.242893 -11.3622 12.98228 -2.690079 -3.423736 6.867654 1.833851 9.915204 -8.023762 -1.409082 20.49281 7.479599 5.16926 -20.55865 4.423855 1.94017 -24.11854 11.89854 85.4104 29.56854 -13.94693 -0 0 23.44211 -16.10054 7.589969 5.293478 6.483682 -24.82742 -2.130762 -94.46466 9.895999 30.08787 0 0 -4.31362 10.53769 15.56911 -2.45767
-541.942 100.7563 3043.009 -3.717696 -6.251706 -27.25205 6.129024 -14.64072 2.552384 -0 15.27096 -0 -4.519199 0.6368023 -6.899608 -3.068446 12.21955 -5.790522 -0 50.36158 -0 -5.374077 -8.212942 14.27911 -2.415664 -3.175035 6.672517 1.875245 9.938043 -8.163186 -1.2086 20.63196 7.339525 5.04347 -20.95198 4.583888 1.124785 -23.56096 11.76846 86.66279 29.01001 -15.27321 -0 0 21.83592 -16.35916 7.265674 4.936447 6.749772 -25.05841 -2.41422 -93.41757 10.27105 27.77125 0 0 -6.868413 11.32751 15.2381 -3.816591
-545.3931 102.1174 3048.78 -4.306708 -7.339139 -28.34294 6.315721 -9.336783 3.337487 -0 16.36383 -0 -4.518579 -1.330559 -6.59518 -2.801229 6.770203 -5.608981 -0 57.50578 -0 -5.357331 -6.328027 15.75154 -2.154905 -2.954853 6.602058 1.867852 10.10328 -8.199097 -1.032171 20.82234 7.127661 4.901367 -21.10159 4.636854 0.4188644 -23.26544 11.70021 87.72979 28.39423 -16.24763 -0 0 20.56093 -16.60182 6.947351 4.684383 6.769445 -25.24321 -2.891298 -92.66004 10.52599 26.1996 0 0 -8.793012 11.92469 14.88777 -4.74816
-548.6029 103.4384 3054.154 -4.566773 -8.329126 -29.55818 5.994585 -3.878196 3.579317 -0 15.80187 -0 -4.615788 -3.536993 -6.034792 -2.536745 0.3156257 -5.418632 -0 60.56605 -0 -5.268409 -5.783223 17.11091 -1.921932 -2.778912 6.640017 1.819928 10.37204 -8.147045 -0.8768825 21.03676 6.86402 4.744881 -21.06597 4.612374 -0.1534767 -23.2125 11.68163 88.5545 27.77152 -16.84998 -0 0 19.67435 -16.81892 6.674379 4.541736 6.5992 -25.35841 -3.470986 -92.2013 10.71005 25.34858 0 0 -10.05256 12.33521 14.57896 -5.28591
